<?xml version="1.0" encoding="utf-8"?>
<!-- Generator: Adobe Illustrator 16.0.3, SVG Export Plug-In . SVG Version: 6.00 Build 0)  -->
<!DOCTYPE svg PUBLIC "-//W3C//DTD SVG 1.1//EN" "http://www.w3.org/Graphics/SVG/1.1/DTD/svg11.dtd">
<svg version="1.1" id="Layer_1" xmlns="http://www.w3.org/2000/svg" xmlns:xlink="http://www.w3.org/1999/xlink" x="0px" y="0px"
	 width="25px" height="45px" viewBox="0 0 25 45" enable-background="new 0 0 25 45" xml:space="preserve">
<g>
	<g>
		<g>
			<path fill="#424242" d="M18.497,13.459c-0.803-0.853-1.778-1.515-2.928-1.995c-1.151-0.48-2.463-0.722-3.936-0.722
				c-4.083,0-7.568,1.317-10.458,3.95l1.101,1.923c0.18,0.31,0.418,0.571,0.713,0.781c0.291,0.21,0.643,0.317,1.054,0.317
				c0.489,0,0.937-0.115,1.349-0.341c0.406-0.23,0.854-0.484,1.336-0.769c0.479-0.286,1.047-0.54,1.702-0.766
				c0.65-0.23,1.468-0.341,2.448-0.341c1.355,0,2.389,0.404,3.098,1.213s1.064,2.058,1.064,3.743v1.476
				c-2.855,0-5.248,0.242-7.178,0.733c-1.926,0.487-3.469,1.103-4.629,1.844c-1.16,0.742-1.989,1.57-2.487,2.495
				C0.247,27.92,0,28.852,0,29.799c0,1.123,0.179,2.11,0.538,2.955c0.359,0.85,0.861,1.559,1.507,2.129
				c0.646,0.571,1.416,0.999,2.315,1.281c0.897,0.286,1.879,0.428,2.939,0.428c0.896,0,1.714-0.07,2.448-0.218
				c0.737-0.146,1.431-0.365,2.085-0.658c0.65-0.293,1.283-0.653,1.898-1.083c0.609-0.432,1.235-0.932,1.873-1.499l0.539,1.777
				c0.164,0.519,0.407,0.864,0.733,1.034c0.327,0.171,0.778,0.259,1.349,0.259h2.719V20.418c0-1.416-0.209-2.712-0.623-3.898
				C19.903,15.334,19.295,14.315,18.497,13.459z M15.04,29.789c-0.438,0.447-0.877,0.836-1.309,1.166
				c-0.435,0.325-0.881,0.604-1.348,0.825c-0.466,0.226-0.961,0.393-1.482,0.503c-0.522,0.115-1.094,0.17-1.715,0.17
				c-1.014,0-1.834-0.23-2.461-0.689c-0.63-0.457-0.945-1.218-0.945-2.281c0-0.539,0.152-1.039,0.455-1.494
				c0.3-0.461,0.811-0.86,1.531-1.206c0.719-0.341,1.668-0.626,2.855-0.845c1.18-0.223,2.654-0.334,4.418-0.334V29.789z"/>
		</g>
	</g>
</g>
</svg>
