<?xml version="1.0" encoding="utf-8"?>
<!-- Generator: Adobe Illustrator 16.0.3, SVG Export Plug-In . SVG Version: 6.00 Build 0)  -->
<!DOCTYPE svg PUBLIC "-//W3C//DTD SVG 1.1//EN" "http://www.w3.org/Graphics/SVG/1.1/DTD/svg11.dtd">
<svg version="1.1" id="Layer_1" xmlns="http://www.w3.org/2000/svg" xmlns:xlink="http://www.w3.org/1999/xlink" x="0px" y="0px"
	 width="25px" height="45px" viewBox="0 0 25 45" enable-background="new 0 0 25 45" xml:space="preserve">
<g>
	<g>
		<g>
			<path fill="#424242" d="M17.073,13.205c-0.781-0.746-1.676-1.344-2.668-1.792c-0.996-0.444-2.196-0.67-3.604-0.67
				c-1.646,0-3.134,0.33-4.458,0.988c-1.319,0.658-2.456,1.574-3.405,2.74c-0.945,1.17-1.675,2.554-2.181,4.144
				C0.252,20.205,0,21.93,0,23.777c0,2.051,0.224,3.867,0.674,5.461c0.446,1.59,1.084,2.927,1.91,4.005
				c0.825,1.083,1.81,1.907,2.954,2.475c1.141,0.567,2.4,0.853,3.772,0.853c0.882,0,1.703-0.094,2.46-0.28
				c0.762-0.187,1.473-0.448,2.133-0.79c0.662-0.341,1.276-0.749,1.851-1.217c0.569-0.473,1.116-0.999,1.639-1.586l0.49,2.41
				c0.247,0.734,0.762,1.1,1.543,1.1h3.7V0h-6.053V13.205z M17.073,28.797c-0.781,0.959-1.615,1.697-2.496,2.217
				c-0.885,0.52-1.955,0.78-3.209,0.78c-0.787,0-1.496-0.144-2.133-0.428c-0.635-0.281-1.177-0.746-1.615-1.388
				c-0.443-0.644-0.782-1.472-1.018-2.486c-0.238-1.012-0.355-2.252-0.355-3.717c0-1.442,0.137-2.695,0.416-3.762
				c0.279-1.063,0.674-1.939,1.188-2.629c0.516-0.69,1.145-1.206,1.887-1.547c0.741-0.341,1.57-0.511,2.487-0.511
				c0.929,0,1.798,0.17,2.608,0.511c0.81,0.341,1.555,0.924,2.24,1.753V28.797L17.073,28.797z"/>
		</g>
	</g>
</g>
</svg>
