<?xml version="1.0" encoding="utf-8"?>
<!-- Generator: Adobe Illustrator 16.0.3, SVG Export Plug-In . SVG Version: 6.00 Build 0)  -->
<!DOCTYPE svg PUBLIC "-//W3C//DTD SVG 1.1//EN" "http://www.w3.org/Graphics/SVG/1.1/DTD/svg11.dtd">
<svg version="1.1" id="Layer_1" xmlns="http://www.w3.org/2000/svg" xmlns:xlink="http://www.w3.org/1999/xlink" x="0px" y="0px"
	 width="25px" height="45px" viewBox="0 0 25 45" enable-background="new 0 0 25 45" xml:space="preserve">
<g>
	<g>
		<g>
			<path fill="#424242" d="M7.129,31.454c-0.199-0.456-0.459-0.845-0.785-1.17s-0.718-0.587-1.177-0.781
				c-0.458-0.194-0.94-0.29-1.442-0.29c-0.527,0-1.014,0.096-1.473,0.29c-0.458,0.194-0.854,0.456-1.188,0.781
				c-0.336,0.325-0.6,0.714-0.787,1.17C0.091,31.91,0,32.386,0,32.891c0,0.522,0.091,1.002,0.277,1.45
				c0.188,0.448,0.451,0.833,0.787,1.158c0.334,0.325,0.729,0.579,1.188,0.767c0.459,0.187,0.945,0.28,1.473,0.28
				c0.502,0,0.984-0.095,1.442-0.28c0.459-0.188,0.851-0.44,1.177-0.767c0.326-0.325,0.586-0.709,0.785-1.158
				c0.195-0.448,0.291-0.928,0.291-1.45C7.42,32.386,7.324,31.91,7.129,31.454z"/>
		</g>
	</g>
</g>
</svg>
