<?xml version="1.0" encoding="utf-8"?>
<!-- Generator: Adobe Illustrator 16.0.3, SVG Export Plug-In . SVG Version: 6.00 Build 0)  -->
<!DOCTYPE svg PUBLIC "-//W3C//DTD SVG 1.1//EN" "http://www.w3.org/Graphics/SVG/1.1/DTD/svg11.dtd">
<svg version="1.1" id="Layer_1" xmlns="http://www.w3.org/2000/svg" xmlns:xlink="http://www.w3.org/1999/xlink" x="0px" y="0px"
	 width="25px" height="45px" viewBox="0 0 25 45" enable-background="new 0 0 25 45" xml:space="preserve">
<g>
	<g>
		<g>
			<path fill="#424242" d="M14.182,11.099c-0.948-0.222-1.961-0.329-3.037-0.329c-1.439,0-2.764,0.187-3.979,0.559
				c-1.221,0.373-2.272,0.912-3.162,1.618c-0.889,0.71-1.583,1.563-2.081,2.562c-0.498,0.996-0.75,2.114-0.75,3.347
				c0,1.526,0.363,2.859,1.094,3.997c0.726,1.138,1.727,2.045,2.998,2.728c-0.555,0.278-1.037,0.591-1.443,0.94
				c-0.406,0.349-0.745,0.718-1.018,1.105c-0.271,0.393-0.471,0.785-0.602,1.182c-0.128,0.4-0.195,0.785-0.195,1.158
				c0,0.912,0.188,1.65,0.565,2.217c0.375,0.571,0.873,1.023,1.491,1.364c-1.271,0.472-2.27,1.106-2.986,1.899
				C0.358,36.244,0,37.227,0,38.396c0,0.86,0.227,1.689,0.686,2.486c0.455,0.793,1.146,1.495,2.07,2.106
				c0.92,0.61,2.084,1.098,3.488,1.463c1.402,0.364,3.063,0.547,4.973,0.547c1.93,0,3.645-0.25,5.146-0.746
				c1.5-0.5,2.771-1.153,3.809-1.967c1.036-0.817,1.83-1.745,2.377-2.788s0.82-2.118,0.82-3.229c0-1.188-0.23-2.16-0.697-2.918
				c-0.467-0.757-1.08-1.355-1.839-1.795c-0.757-0.44-1.622-0.762-2.583-0.969c-0.965-0.202-1.953-0.345-2.967-0.428
				c-1.014-0.079-1.998-0.123-2.963-0.123s-1.826-0.048-2.584-0.146c-0.762-0.096-1.371-0.267-1.838-0.5
				c-0.467-0.238-0.697-0.611-0.697-1.119c0-0.59,0.391-1.123,1.176-1.594c0.897,0.178,1.818,0.266,2.768,0.266
				c1.404,0,2.707-0.189,3.908-0.57c1.199-0.38,2.236-0.924,3.109-1.622s1.559-1.546,2.059-2.546c0.498-1,0.748-2.114,0.748-3.351
				c0-0.52-0.047-1.015-0.136-1.483c-0.091-0.472-0.215-0.92-0.378-1.34l2.252-0.416c0.475-0.08,0.811-0.226,1.006-0.438
				c0.194-0.21,0.295-0.503,0.295-0.88v-2.24h-7.229C15.997,11.639,15.128,11.317,14.182,11.099z M7.52,34.523
				c0.75,0.178,1.531,0.27,2.336,0.27h2.354c0.762,0,1.479,0.04,2.157,0.123c0.678,0.083,1.269,0.21,1.774,0.384
				c0.506,0.175,0.908,0.421,1.199,0.734c0.295,0.317,0.442,0.722,0.442,1.221c0,0.496-0.124,0.956-0.367,1.38
				c-0.247,0.42-0.634,0.785-1.164,1.096c-0.53,0.305-1.204,0.547-2.021,0.722c-0.817,0.175-1.786,0.262-2.916,0.262
				c-1.111,0-2.049-0.08-2.813-0.233c-0.771-0.155-1.396-0.369-1.878-0.646c-0.479-0.273-0.83-0.604-1.053-0.982
				c-0.221-0.386-0.331-0.793-0.331-1.233c0-0.666,0.211-1.253,0.626-1.765C6.279,35.34,6.834,34.896,7.52,34.523z M15.323,20.66
				c-0.19,0.503-0.468,0.936-0.834,1.292c-0.366,0.357-0.829,0.635-1.384,0.841c-0.559,0.202-1.213,0.301-1.961,0.301
				c-0.734,0-1.385-0.099-1.946-0.301c-0.565-0.206-1.028-0.488-1.399-0.853c-0.367-0.369-0.646-0.801-0.828-1.305
				c-0.191-0.503-0.283-1.047-0.283-1.634c0-1.233,0.371-2.213,1.111-2.935c0.746-0.722,1.858-1.086,3.346-1.086
				c1.488,0,2.601,0.365,3.346,1.086c0.742,0.722,1.113,1.701,1.113,2.935C15.602,19.605,15.512,20.156,15.323,20.66z"/>
		</g>
	</g>
</g>
</svg>
