<?xml version="1.0" encoding="utf-8"?>
<!-- Generator: Adobe Illustrator 16.0.3, SVG Export Plug-In . SVG Version: 6.00 Build 0)  -->
<!DOCTYPE svg PUBLIC "-//W3C//DTD SVG 1.1//EN" "http://www.w3.org/Graphics/SVG/1.1/DTD/svg11.dtd">
<svg version="1.1" id="Layer_1" xmlns="http://www.w3.org/2000/svg" xmlns:xlink="http://www.w3.org/1999/xlink" x="0px" y="0px"
	 width="25px" height="45px" viewBox="0 0 25 45" enable-background="new 0 0 25 45" xml:space="preserve">
<g>
	<g>
		<g>
			<path fill="#424242" d="M0.785,36.205h6.049V11.207H0.785V36.205z M6.579,1.193C6.225,0.852,5.813,0.579,5.34,0.377
				C4.864,0.174,4.362,0.071,3.819,0.071c-0.522,0-1.017,0.103-1.479,0.306C1.873,0.579,1.471,0.853,1.129,1.193
				C0.785,1.534,0.51,1.939,0.307,2.411C0.1,2.883,0,3.387,0,3.922c0,0.52,0.101,1.007,0.307,1.463
				c0.205,0.452,0.479,0.853,0.822,1.193C1.471,6.919,1.875,7.189,2.34,7.395c0.463,0.202,0.957,0.301,1.479,0.301
				c0.542,0,1.045-0.099,1.521-0.301c0.474-0.206,0.885-0.476,1.239-0.817c0.351-0.341,0.63-0.742,0.845-1.193
				c0.211-0.456,0.315-0.944,0.315-1.463c0-0.535-0.104-1.039-0.315-1.511C7.209,1.939,6.93,1.535,6.579,1.193z"/>
		</g>
	</g>
</g>
</svg>
