<?xml version="1.0" encoding="utf-8"?>
<!-- Generator: Adobe Illustrator 16.0.3, SVG Export Plug-In . SVG Version: 6.00 Build 0)  -->
<!DOCTYPE svg PUBLIC "-//W3C//DTD SVG 1.1//EN" "http://www.w3.org/Graphics/SVG/1.1/DTD/svg11.dtd">
<svg version="1.1" id="Layer_1" xmlns="http://www.w3.org/2000/svg" xmlns:xlink="http://www.w3.org/1999/xlink" x="0px" y="0px"
	 width="25px" height="45px" viewBox="0 0 25 45" enable-background="new 0 0 25 45" xml:space="preserve">
<g>
	<g>
		<g>
			<path fill="#424242" d="M19.734,13.459c-0.71-0.833-1.596-1.483-2.656-1.947c-1.064-0.464-2.279-0.694-3.652-0.694
				c-0.849,0-1.631,0.079-2.353,0.242c-0.718,0.163-1.392,0.4-2.021,0.706c-0.627,0.309-1.225,0.674-1.786,1.098
				c-0.562,0.424-1.101,0.893-1.607,1.412l-0.415-1.971c-0.242-0.733-0.758-1.098-1.543-1.098H0v24.998h6.053V18.126
				c0.818-0.813,1.684-1.451,2.597-1.923c0.913-0.472,1.894-0.706,2.938-0.706c1.424,0,2.487,0.417,3.197,1.253
				c0.709,0.837,1.064,2.019,1.064,3.545v15.909h6.053V20.295c0-1.396-0.184-2.677-0.551-3.839
				C20.986,15.295,20.443,14.299,19.734,13.459z"/>
		</g>
	</g>
</g>
</svg>
