<?xml version="1.0" encoding="utf-8"?>
<!-- Generator: Adobe Illustrator 16.0.3, SVG Export Plug-In . SVG Version: 6.00 Build 0)  -->
<!DOCTYPE svg PUBLIC "-//W3C//DTD SVG 1.1//EN" "http://www.w3.org/Graphics/SVG/1.1/DTD/svg11.dtd">
<svg version="1.1" id="Layer_1" xmlns="http://www.w3.org/2000/svg" xmlns:xlink="http://www.w3.org/1999/xlink" x="0px" y="0px"
	 width="25px" height="45px" viewBox="0 0 25 45" enable-background="new 0 0 25 45" xml:space="preserve">
<path fill="#424242" d="M21.486,14.276c-1.08-1.103-2.38-1.955-3.908-2.558c-1.526-0.599-3.229-0.9-5.106-0.9s-3.585,0.301-5.12,0.9
	c-1.535,0.603-2.847,1.456-3.932,2.558c-1.088,1.106-1.93,2.455-2.523,4.044C0.299,19.914,0,21.691,0,23.657
	c0,1.983,0.299,3.768,0.896,5.356c0.594,1.594,1.436,2.95,2.523,4.069c1.085,1.122,2.396,1.981,3.932,2.585
	c1.535,0.6,3.242,0.9,5.12,0.9s3.581-0.301,5.106-0.9c1.527-0.604,2.828-1.463,3.908-2.585c1.077-1.119,1.91-2.476,2.496-4.069
	c0.59-1.59,0.885-3.375,0.885-5.356c0-1.967-0.295-3.743-0.885-5.337C23.396,16.73,22.563,15.382,21.486,14.276z M17.113,29.844
	c-1.006,1.399-2.553,2.098-4.642,2.098c-2.125,0-3.692-0.701-4.705-2.109c-1.013-1.404-1.521-3.446-1.521-6.126
	c0-2.68,0.508-4.731,1.521-6.15c1.013-1.424,2.58-2.133,4.705-2.133c2.089,0,3.636,0.706,4.642,2.121
	c1.004,1.412,1.506,3.466,1.506,6.163C18.619,26.402,18.117,28.448,17.113,29.844z"/>
</svg>
